<svg width="1920" height="183" viewBox="0 0 1920 183" fill="none" xmlns="http://www.w3.org/2000/svg">
<path d="M41.1875 3.24219V2.24219H40.1875V3.24219H41.1875ZM41.1875 112.617L42.1875 112.624V112.617H41.1875ZM-17.6504 3.24219H-16.6504V2.24219H-17.6504V3.24219ZM-64.0371 3.24219V2.24219H-65.0371V3.24219H-64.0371ZM-64.0371 116.768L-63.0371 116.771V116.768H-64.0371ZM11.6465 182.197L11.6438 183.197L11.6492 183.197L11.6465 182.197ZM87.5742 116.768H86.5742V116.771L87.5742 116.768ZM87.5742 3.24219H88.5742V2.24219H87.5742V3.24219ZM40.1875 3.24219V112.617H42.1875V3.24219H40.1875ZM40.1875 112.61C40.1282 120.915 37.1662 127.98 32.1654 132.966C27.1653 137.952 20.0718 140.914 11.6465 140.914V142.914C20.5551 142.914 28.1711 139.773 33.5775 134.382C38.9832 128.993 42.1247 121.409 42.1875 112.624L40.1875 112.61ZM11.6465 140.914C-4.89108 140.914 -16.6504 129.155 -16.6504 112.617H-18.6504C-18.6504 130.259 -5.99564 142.914 11.6465 142.914V140.914ZM-16.6504 112.617V3.24219H-18.6504V112.617H-16.6504ZM-17.6504 2.24219H-64.0371V4.24219H-17.6504V2.24219ZM-65.0371 3.24219V116.768H-63.0371V3.24219H-65.0371ZM-65.0371 116.765C-65.099 137.057 -57.4174 153.671 -43.9198 165.211C-30.4389 176.738 -11.2391 183.136 11.6438 183.197L11.6492 181.197C-10.8781 181.137 -29.5812 174.84 -42.62 163.691C-55.6421 152.557 -63.0973 136.517 -63.0371 116.771L-65.0371 116.765ZM11.6492 183.197C34.4715 183.136 53.7308 176.737 67.2869 165.213C80.86 153.674 88.6361 137.061 88.5742 116.765L86.5742 116.771C86.6344 136.513 79.0907 152.554 65.9915 163.689C52.8752 174.84 34.1096 181.137 11.6438 181.197L11.6492 183.197ZM88.5742 116.768V3.24219H86.5742V116.768H88.5742ZM87.5742 2.24219H41.1875V4.24219H87.5742V2.24219ZM157.887 3.24219H158.887V2.24219H157.887V3.24219ZM111.5 3.24219V2.24219H110.5V3.24219H111.5ZM111.5 180H110.5V181H111.5V180ZM157.887 180V181H158.887V180H157.887ZM157.887 2.24219H111.5V4.24219H157.887V2.24219ZM110.5 3.24219V180H112.5V3.24219H110.5ZM111.5 181H157.887V179H111.5V181ZM158.887 180V3.24219H156.887V180H158.887ZM287.037 3.24219V2.24219H286.037V3.24219H287.037ZM287.037 112.617L288.037 112.624V112.617H287.037ZM228.199 3.24219H229.199V2.24219H228.199V3.24219ZM181.812 3.24219V2.24219H180.812V3.24219H181.812ZM181.812 116.768L182.812 116.771V116.768H181.812ZM257.496 182.197L257.493 183.197L257.499 183.197L257.496 182.197ZM333.424 116.768H332.424V116.771L333.424 116.768ZM333.424 3.24219H334.424V2.24219H333.424V3.24219ZM286.037 3.24219V112.617H288.037V3.24219H286.037ZM286.037 112.61C285.978 120.915 283.016 127.98 278.015 132.966C273.015 137.952 265.921 140.914 257.496 140.914V142.914C266.405 142.914 274.021 139.773 279.427 134.382C284.833 128.993 287.974 121.409 288.037 112.624L286.037 112.61ZM257.496 140.914C240.959 140.914 229.199 129.155 229.199 112.617H227.199C227.199 130.259 239.854 142.914 257.496 142.914V140.914ZM229.199 112.617V3.24219H227.199V112.617H229.199ZM228.199 2.24219H181.812V4.24219H228.199V2.24219ZM180.812 3.24219V116.768H182.812V3.24219H180.812ZM180.812 116.765C180.751 137.057 188.432 153.671 201.93 165.211C215.411 176.738 234.61 183.136 257.493 183.197L257.499 181.197C234.972 181.137 216.268 174.84 203.23 163.691C190.207 152.557 182.752 136.517 182.812 116.771L180.812 116.765ZM257.499 183.197C280.321 183.136 299.58 176.737 313.136 165.213C326.71 153.674 334.486 137.061 334.424 116.765L332.424 116.771C332.484 136.513 324.94 152.554 311.841 163.689C298.725 174.84 279.959 181.137 257.493 181.197L257.499 183.197ZM334.424 116.768V3.24219H332.424V116.768H334.424ZM333.424 2.24219H287.037V4.24219H333.424V2.24219ZM406.422 3.24219L407.293 2.7504L407.006 2.24219H406.422V3.24219ZM354.176 3.24219V2.24219H352.415L353.317 3.75459L354.176 3.24219ZM406.91 91.6211L407.762 92.1456L408.08 91.6294L407.769 91.1087L406.91 91.6211ZM352.467 180L351.615 179.476L350.676 181H352.467V180ZM405.445 180V181H406.024L406.312 180.499L405.445 180ZM436.207 126.533V125.533H435.629L435.34 126.035L436.207 126.533ZM437.672 126.533L438.537 126.032L438.248 125.533H437.672V126.533ZM468.678 180L467.813 180.502L468.102 181H468.678V180ZM521.9 180V181H523.699L522.75 179.472L521.9 180ZM466.969 91.6211L466.111 91.1069L465.797 91.6305L466.119 92.149L466.969 91.6211ZM519.947 3.24219L520.805 3.75634L521.713 2.24219H519.947V3.24219ZM467.945 3.24219V2.24219H467.366L467.078 2.74432L467.945 3.24219ZM437.672 55.9766V56.9766H438.251L438.539 56.4744L437.672 55.9766ZM436.207 55.9766L435.336 56.4684L435.623 56.9766H436.207V55.9766ZM406.422 2.24219H354.176V4.24219H406.422V2.24219ZM353.317 3.75459L406.051 92.1335L407.769 91.1087L355.035 2.72979L353.317 3.75459ZM406.059 91.0966L351.615 179.476L353.318 180.524L407.762 92.1456L406.059 91.0966ZM352.467 181H405.445V179H352.467V181ZM406.312 180.499L437.074 127.032L435.34 126.035L404.579 179.501L406.312 180.499ZM436.207 127.533H437.672V125.533H436.207V127.533ZM436.807 127.035L467.813 180.502L469.543 179.498L438.537 126.032L436.807 127.035ZM468.678 181H521.9V179H468.678V181ZM522.75 179.472L467.818 91.0932L466.119 92.149L521.051 180.528L522.75 179.472ZM467.826 92.1352L520.805 3.75634L519.09 2.72804L466.111 91.1069L467.826 92.1352ZM519.947 2.24219H467.945V4.24219H519.947V2.24219ZM467.078 2.74432L436.805 55.4787L438.539 56.4744L468.813 3.74006L467.078 2.74432ZM437.672 54.9766H436.207V56.9766H437.672V54.9766ZM437.078 55.4848L407.293 2.7504L405.551 3.73398L435.336 56.4684L437.078 55.4848ZM711.842 68.916L710.846 69.0112L710.933 69.916H711.842V68.916ZM758.961 68.916V69.916H760.055L759.957 68.8265L758.961 68.916ZM594.166 91.6211L593.166 91.619V91.6232L594.166 91.6211ZM758.961 117.012L759.957 117.096L760.048 116.023L758.971 116.012L758.961 117.012ZM711.842 116.523L711.852 115.523L710.993 115.515L710.855 116.363L711.842 116.523ZM680.104 141.914L680.098 142.914L680.11 142.914L680.104 141.914ZM711.842 69.916H758.961V67.916H711.842V69.916ZM759.957 68.8265C757.982 46.8605 748.93 29.5764 734.743 17.7928C720.567 6.01788 701.344 -0.199219 679.127 -0.199219V1.80078C700.977 1.80078 719.718 7.91279 733.465 19.3313C747.202 30.741 756.033 47.5145 757.965 69.0055L759.957 68.8265ZM679.127 -0.199219C655.158 -0.199219 633.68 7.87617 618.177 23.441C602.671 39.0091 593.227 61.9832 593.166 91.619L595.166 91.6232C595.227 62.4211 604.521 39.9851 619.594 24.8524C634.669 9.7166 655.611 1.80078 679.127 1.80078V-0.199219ZM593.166 91.6232C593.227 121.13 602.422 144.105 617.807 159.706C633.19 175.306 654.671 183.441 679.127 183.441V181.441C655.121 181.441 634.182 173.463 619.231 158.302C604.281 143.141 595.227 120.706 595.166 91.619L593.166 91.6232ZM679.127 183.441C730.577 183.441 757.352 147.86 759.957 117.096L757.964 116.927C755.443 146.711 729.484 181.441 679.127 181.441V183.441ZM758.971 116.012L711.852 115.523L711.831 117.523L758.951 118.012L758.971 116.012ZM710.855 116.363C709.606 124.032 706.263 130.115 701.11 134.302C695.952 138.493 688.894 140.854 680.097 140.914L680.11 142.914C689.258 142.852 696.787 140.391 702.371 135.854C707.96 131.313 711.514 124.762 712.829 116.684L710.855 116.363ZM680.109 140.914C668.403 140.854 659.192 136.688 652.878 128.56C646.534 120.393 643.018 108.101 643.018 91.6211H641.018C641.018 108.345 644.581 121.138 651.299 129.786C658.046 138.473 667.878 142.852 680.098 142.914L680.109 140.914ZM643.018 91.6211C643.018 75.9398 646.441 63.6084 652.779 55.2215C659.088 46.8734 668.363 42.3281 680.348 42.3281V40.3281C667.796 40.3281 657.906 45.1213 651.184 54.0156C644.491 62.8711 641.018 75.6862 641.018 91.6211H643.018ZM680.348 42.3281C689.549 42.3281 696.77 45.0131 701.878 49.6378C706.987 54.2632 710.072 60.9122 710.846 69.0112L712.837 68.8209C712.025 60.3183 708.763 53.1733 703.22 48.1552C697.677 43.1363 689.945 40.3281 680.348 40.3281V42.3281ZM819.996 180V181H820.738L820.953 180.29L819.996 180ZM830.494 145.332V144.332H829.752L829.537 145.042L830.494 145.332ZM889.698 145.332L890.654 145.039L890.438 144.332H889.698V145.332ZM900.318 180L899.362 180.293L899.579 181H900.318V180ZM950.367 180V181H951.752L951.316 179.685L950.367 180ZM891.773 3.24219L892.723 2.92753L892.495 2.24219H891.773V3.24219ZM828.541 3.24219V2.24219H827.82L827.592 2.92635L828.541 3.24219ZM769.703 180L768.754 179.684L768.316 181H769.703V180ZM841.236 110.176L840.28 109.884L839.886 111.176H841.236V110.176ZM859.303 50.8496V49.8496H858.562L858.346 50.5583L859.303 50.8496ZM860.768 50.8496L861.724 50.5565L861.507 49.8496H860.768V50.8496ZM878.956 110.176V111.176H880.309L879.912 109.883L878.956 110.176ZM820.953 180.29L831.451 145.622L829.537 145.042L819.039 179.71L820.953 180.29ZM830.494 146.332H889.698V144.332H830.494V146.332ZM888.742 145.625L899.362 180.293L901.274 179.707L890.654 145.039L888.742 145.625ZM900.318 181H950.367V179H900.318V181ZM951.316 179.685L892.723 2.92753L890.824 3.55684L949.418 180.315L951.316 179.685ZM891.773 2.24219H828.541V4.24219H891.773V2.24219ZM827.592 2.92635L768.754 179.684L770.652 180.316L829.49 3.55802L827.592 2.92635ZM769.703 181H819.996V179H769.703V181ZM842.193 110.467L860.259 51.1409L858.346 50.5583L840.28 109.884L842.193 110.467ZM859.303 51.8496H860.768V49.8496H859.303V51.8496ZM859.812 51.1427L878 110.469L879.912 109.883L861.724 50.5565L859.812 51.1427ZM878.956 109.176H841.236V111.176H878.956V109.176ZM967.945 180H966.945V181H967.945V180ZM1014.33 180V181H1015.33V180H1014.33ZM1014.33 121.162V120.162H1013.33V121.162H1014.33ZM1032.52 121.162L1033.4 120.692L1033.12 120.162H1032.52V121.162ZM1063.89 180L1063.01 180.47L1063.29 181H1063.89V180ZM1114.43 180V181H1116.11L1115.31 179.521L1114.43 180ZM1078.3 113.716L1077.87 112.812L1076.91 113.266L1077.42 114.194L1078.3 113.716ZM967.945 3.24219V2.24219H966.945V3.24219H967.945ZM1014.33 84.7852H1013.33V85.7852H1014.33V84.7852ZM1014.33 40.3516V39.3516H1013.33V40.3516H1014.33ZM1032.4 40.3516L1032.41 39.3516H1032.4V40.3516ZM1059.99 63.0566L1058.99 63.0488V63.0567V63.0646L1059.99 63.0566ZM967.945 181H1014.33V179H967.945V181ZM1015.33 180V121.162H1013.33V180H1015.33ZM1014.33 122.162H1032.52V120.162H1014.33V122.162ZM1031.64 121.633L1063.01 180.47L1064.78 179.53L1033.4 120.692L1031.64 121.633ZM1063.89 181H1114.43V179H1063.89V181ZM1115.31 179.521L1079.17 113.237L1077.42 114.194L1113.55 180.479L1115.31 179.521ZM1078.73 114.619C1098.14 105.41 1109.57 87.8329 1109.57 63.0566H1107.57C1107.57 87.1086 1096.54 103.955 1077.87 112.812L1078.73 114.619ZM1109.57 63.0566C1109.57 44.1363 1103.01 28.8981 1091.36 18.3989C1079.72 7.91111 1063.1 2.24219 1043.14 2.24219V4.24219C1062.73 4.24219 1078.83 9.80373 1090.02 19.8847C1101.19 29.9545 1107.57 44.6234 1107.57 63.0566H1109.57ZM1043.14 2.24219H967.945V4.24219H1043.14V2.24219ZM966.945 3.24219V180H968.945V3.24219H966.945ZM1015.33 84.7852V40.3516H1013.33V84.7852H1015.33ZM1014.33 41.3516H1032.4V39.3516H1014.33V41.3516ZM1032.39 41.3515C1041.01 41.4118 1047.68 43.1637 1052.17 46.6775C1056.6 50.1542 1059.05 55.4753 1058.99 63.0488L1060.99 63.0645C1061.05 55.013 1058.43 49.0426 1053.4 45.1035C1048.42 41.2015 1041.24 39.4134 1032.41 39.3516L1032.39 41.3515ZM1058.99 63.0646C1059.05 70.5087 1056.61 75.6061 1052.19 78.8856C1047.71 82.209 1041.04 83.7852 1032.4 83.7852V85.7852C1041.22 85.7852 1048.4 84.1875 1053.38 80.4918C1058.42 76.7523 1061.05 70.9854 1060.99 63.0487L1058.99 63.0646ZM1032.4 83.7852H1014.33V85.7852H1032.4V83.7852ZM1129.57 3.24219V2.24219H1128.57V3.24219H1129.57ZM1129.57 180H1128.57V181H1129.57V180ZM1175.95 140.449H1174.95V141.449H1175.95V140.449ZM1175.95 42.793V41.793H1174.95V42.793H1175.95ZM1196.71 181C1223.89 181 1246.14 172.632 1261.59 157.209C1277.04 141.786 1285.6 119.416 1285.6 91.6211H1283.6C1283.6 119.002 1275.18 140.821 1260.18 155.794C1245.17 170.767 1223.48 179 1196.71 179V181ZM1285.6 91.6211C1285.6 63.7654 1277.04 41.3938 1261.53 25.9854C1246.01 10.578 1223.64 2.24219 1196.22 2.24219V4.24219C1223.24 4.24219 1245.06 12.4469 1260.12 27.4045C1275.18 42.361 1283.6 64.1789 1283.6 91.6211H1285.6ZM1196.22 2.24219H1129.57V4.24219H1196.22V2.24219ZM1128.57 3.24219V180H1130.57V3.24219H1128.57ZM1129.57 181H1196.71V179H1129.57V181ZM1176.95 140.449V42.793H1174.95V140.449H1176.95ZM1175.95 43.793H1193.78V41.793H1175.95V43.793ZM1193.78 43.793C1207.89 43.793 1218.55 46.6454 1225.7 53.9015C1232.86 61.164 1236.72 73.0496 1236.72 91.6211H1238.72C1238.72 72.8391 1234.83 60.3106 1227.13 52.4974C1219.42 44.6778 1208.1 41.793 1193.78 41.793V43.793ZM1236.72 91.6211C1236.72 110.13 1232.86 122.023 1225.85 129.303C1218.84 136.572 1208.49 139.449 1195 139.449V141.449C1208.72 141.449 1219.73 138.528 1227.29 130.691C1234.83 122.865 1238.72 110.344 1238.72 91.6211H1236.72ZM1195 139.449H1175.95V141.449H1195V139.449ZM1361.74 3.24219V2.24219H1360.74V3.24219H1361.74ZM1361.74 180H1360.74V181H1361.74V180ZM1408.13 140.449H1407.13V141.449H1408.13V140.449ZM1408.13 42.793V41.793H1407.13V42.793H1408.13ZM1428.88 181C1456.07 181 1478.31 172.632 1493.77 157.209C1509.22 141.786 1517.77 119.416 1517.77 91.6211H1515.77C1515.77 119.002 1507.36 140.821 1492.35 155.794C1477.35 170.767 1455.65 179 1428.88 179V181ZM1517.77 91.6211C1517.77 63.7654 1509.22 41.3938 1493.7 25.9854C1478.19 10.578 1455.82 2.24219 1428.39 2.24219V4.24219C1455.41 4.24219 1477.23 12.4469 1492.3 27.4045C1507.36 42.361 1515.77 64.1789 1515.77 91.6211H1517.77ZM1428.39 2.24219H1361.74V4.24219H1428.39V2.24219ZM1360.74 3.24219V180H1362.74V3.24219H1360.74ZM1361.74 181H1428.88V179H1361.74V181ZM1409.13 140.449V42.793H1407.13V140.449H1409.13ZM1408.13 43.793H1425.95V41.793H1408.13V43.793ZM1425.95 43.793C1440.07 43.793 1450.73 46.6454 1457.88 53.9015C1465.04 61.164 1468.9 73.0496 1468.9 91.6211H1470.9C1470.9 72.8391 1467.01 60.3106 1459.3 52.4974C1451.59 44.6778 1440.28 41.793 1425.95 41.793V43.793ZM1468.9 91.6211C1468.9 110.13 1465.04 122.023 1458.02 129.303C1451.02 136.572 1440.67 139.449 1427.17 139.449V141.449C1440.9 141.449 1451.91 138.528 1459.46 130.691C1467.01 122.865 1470.9 110.344 1470.9 91.6211H1468.9ZM1427.17 139.449H1408.13V141.449H1427.17V139.449ZM1539.48 180H1538.48V181H1539.48V180ZM1665.46 180V181H1666.46V180H1665.46ZM1665.46 142.402H1666.46V141.402H1665.46V142.402ZM1585.87 142.402H1584.87V143.402H1585.87V142.402ZM1585.87 110.42V109.42H1584.87V110.42H1585.87ZM1659.11 110.42V111.42H1660.11V110.42H1659.11ZM1659.11 72.8223H1660.11V71.8223H1659.11V72.8223ZM1585.87 72.8223H1584.87V73.8223H1585.87V72.8223ZM1585.87 40.8398V39.8398H1584.87V40.8398H1585.87ZM1665.7 40.8398V41.8398H1666.7V40.8398H1665.7ZM1665.7 3.24219H1666.7V2.24219H1665.7V3.24219ZM1539.48 3.24219V2.24219H1538.48V3.24219H1539.48ZM1539.48 181H1665.46V179H1539.48V181ZM1666.46 180V142.402H1664.46V180H1666.46ZM1665.46 141.402H1585.87V143.402H1665.46V141.402ZM1586.87 142.402V110.42H1584.87V142.402H1586.87ZM1585.87 111.42H1659.11V109.42H1585.87V111.42ZM1660.11 110.42V72.8223H1658.11V110.42H1660.11ZM1659.11 71.8223H1585.87V73.8223H1659.11V71.8223ZM1586.87 72.8223V40.8398H1584.87V72.8223H1586.87ZM1585.87 41.8398H1665.7V39.8398H1585.87V41.8398ZM1666.7 40.8398V3.24219H1664.7V40.8398H1666.7ZM1665.7 2.24219H1539.48V4.24219H1665.7V2.24219ZM1538.48 3.24219V180H1540.48V3.24219H1538.48ZM1785.33 57.9297L1784.33 58.0119L1784.41 58.9297H1785.33V57.9297ZM1830.01 57.9297V58.9297H1831.01L1831.01 57.9226L1830.01 57.9297ZM1689.87 56.709L1690.87 56.7134V56.7017L1689.87 56.709ZM1739.92 106.27L1739.7 107.246L1739.7 107.246L1739.92 106.27ZM1757.74 110.176L1757.53 111.153L1757.53 111.153L1757.74 110.176ZM1784.84 127.998L1785.84 128.011L1785.84 127.997L1785.84 127.984L1784.84 127.998ZM1729.66 118.721L1730.66 118.676L1730.62 117.721H1729.66V118.721ZM1685.23 118.721V117.721H1684.22L1684.23 118.729L1685.23 118.721ZM1760.91 182.197L1760.91 183.197L1760.92 183.197L1760.91 182.197ZM1832.45 127.998L1833.45 128.005V127.997V127.989L1832.45 127.998ZM1777.27 74.2871L1777.04 75.261L1777.05 75.2632L1777.06 75.2653L1777.27 74.2871ZM1762.62 70.8691L1762.85 69.8953L1762.84 69.8925L1762.83 69.89L1762.62 70.8691ZM1738.21 53.291L1739.21 53.331L1739.21 53.3185L1739.21 53.3059L1738.21 53.291ZM1760.67 39.1309L1760.66 40.1308L1760.67 40.1309L1760.68 40.1308L1760.67 39.1309ZM1785.33 58.9297H1830.01V56.9297H1785.33V58.9297ZM1831.01 57.9226C1830.88 40.4933 1824.02 25.9265 1811.77 15.7335C1799.54 5.55442 1782.02 -0.199219 1760.67 -0.199219V1.80078C1781.68 1.80078 1798.7 7.46072 1810.49 17.2707C1822.26 27.0667 1828.89 41.0643 1829.01 57.9368L1831.01 57.9226ZM1760.67 -0.199219C1739.75 -0.199219 1721.75 5.46177 1709 15.424C1696.22 25.4011 1688.74 39.6661 1688.87 56.7163L1690.87 56.7017C1690.75 40.3046 1697.92 26.6155 1710.23 17.0003C1722.56 7.37025 1740.09 1.80078 1760.67 1.80078V-0.199219ZM1688.87 56.7045C1688.81 70.6391 1693.64 81.5907 1702.49 89.9083C1711.31 98.1962 1724.04 103.807 1739.7 107.246L1740.13 105.293C1724.66 101.896 1712.32 96.3985 1703.86 88.451C1695.44 80.5333 1690.81 70.1226 1690.87 56.7134L1688.87 56.7045ZM1739.7 107.246L1757.53 111.153L1757.95 109.199L1740.13 105.293L1739.7 107.246ZM1757.53 111.153C1767.33 113.285 1773.92 115.573 1778.06 118.318C1780.12 119.681 1781.54 121.136 1782.45 122.712C1783.37 124.282 1783.81 126.025 1783.84 128.012L1785.84 127.984C1785.81 125.699 1785.29 123.611 1784.18 121.706C1783.08 119.807 1781.41 118.142 1779.17 116.651C1774.7 113.689 1767.8 111.34 1757.95 109.199L1757.53 111.153ZM1783.84 127.985C1783.78 132.342 1781.79 136.01 1777.9 138.628C1773.98 141.271 1768.06 142.867 1760.18 142.867V144.867C1768.29 144.867 1774.65 143.229 1779.02 140.287C1783.43 137.32 1785.77 133.054 1785.84 128.011L1783.84 127.985ZM1760.18 142.867C1751.11 142.867 1743.91 140.733 1738.91 136.696C1733.94 132.678 1731.02 126.679 1730.66 118.676L1728.67 118.765C1729.04 127.242 1732.16 133.816 1737.66 138.252C1743.13 142.668 1750.82 144.867 1760.18 144.867V142.867ZM1729.66 117.721H1685.23V119.721H1729.66V117.721ZM1684.23 118.729C1684.42 140.764 1692.02 156.913 1705.47 167.54C1718.88 178.137 1737.96 183.136 1760.91 183.197L1760.92 181.197C1738.21 181.137 1719.64 176.187 1706.71 165.971C1693.82 155.785 1686.41 140.256 1686.23 118.712L1684.23 118.729ZM1760.92 183.197C1783.38 183.136 1801.44 178.228 1813.94 168.852C1826.48 159.448 1833.32 145.624 1833.45 128.005L1831.45 127.991C1831.33 145.04 1824.74 158.255 1812.74 167.252C1800.71 176.279 1783.12 181.137 1760.91 181.197L1760.92 183.197ZM1833.45 127.989C1833.32 114.153 1828.94 102.477 1819.71 93.2486C1810.51 84.0451 1796.57 77.3602 1777.48 73.3089L1777.06 75.2653C1795.94 79.2707 1809.46 85.8304 1818.3 94.6628C1827.11 103.471 1831.33 114.621 1831.45 128.007L1833.45 127.989ZM1777.5 73.3133L1762.85 69.8953L1762.4 71.843L1777.04 75.261L1777.5 73.3133ZM1762.83 69.89C1754.62 68.1875 1748.59 66.1137 1744.67 63.4086C1740.81 60.7495 1739.04 57.515 1739.21 53.331L1737.21 53.251C1737.01 58.2223 1739.2 62.0679 1743.53 65.0545C1747.79 67.9952 1754.15 70.1328 1762.42 71.8483L1762.83 69.89ZM1739.21 53.3059C1739.27 49.5387 1740.91 46.271 1744.33 43.9228C1747.79 41.5474 1753.15 40.0707 1760.66 40.1308L1760.68 38.1309C1752.93 38.0689 1747.12 39.5829 1743.2 42.2735C1739.24 44.9912 1737.27 48.8646 1737.21 53.2761L1739.21 53.3059ZM1760.68 40.1308C1768.48 40.0708 1774.14 41.7828 1777.96 44.8262C1781.76 47.8528 1783.86 52.302 1784.33 58.0119L1786.32 57.8475C1785.82 51.7165 1783.53 46.7053 1779.21 43.2622C1774.91 39.8359 1768.73 38.0688 1760.66 38.1309L1760.68 40.1308ZM1897.88 3.24219H1898.88V2.24219H1897.88V3.24219ZM1851.49 3.24219V2.24219H1850.49V3.24219H1851.49ZM1851.49 180H1850.49V181H1851.49V180ZM1897.88 180V181H1898.88V180H1897.88ZM1897.88 2.24219H1851.49V4.24219H1897.88V2.24219ZM1850.49 3.24219V180H1852.49V3.24219H1850.49ZM1851.49 181H1897.88V179H1851.49V181ZM1898.88 180V3.24219H1896.88V180H1898.88ZM2036.79 61.3477L2035.82 61.5902L2036.01 62.3477H2036.79V61.3477ZM2083.91 61.3477V62.3477H2085.03L2084.91 61.238L2083.91 61.3477ZM1920.58 91.8652L1919.58 91.8631V91.8674L1920.58 91.8652ZM2085.87 81.8555H2086.87V80.8555H2085.87V81.8555ZM2008.23 81.8555V80.8555H2007.23V81.8555H2008.23ZM2008.23 115.059H2007.23V116.059H2008.23V115.059ZM2040.94 115.059L2041.94 115.074L2041.96 114.059H2040.94V115.059ZM2007.25 141.914L2007.25 142.914L2007.26 142.914L2007.25 141.914ZM2036.79 62.3477H2083.91V60.3477H2036.79V62.3477ZM2084.91 61.238C2080.93 25.218 2048.41 -0.199219 2006.52 -0.199219V1.80078C2047.64 1.80078 2079.08 26.6765 2082.92 61.4573L2084.91 61.238ZM2006.52 -0.199219C1982.48 -0.199219 1960.76 8.12437 1945.04 23.836C1929.31 39.5516 1919.64 62.5843 1919.58 91.8631L1921.58 91.8673C1921.64 63.0407 1931.15 40.5412 1946.45 25.2509C1961.76 9.95668 1982.95 1.80078 2006.52 1.80078V-0.199219ZM1919.58 91.8674C1919.64 120.091 1928.44 143 1943.77 158.86C1959.11 174.722 1980.9 183.441 2006.76 183.441V181.441C1981.36 181.441 1960.12 172.888 1945.21 157.47C1930.3 142.049 1921.64 119.67 1921.58 91.8631L1919.58 91.8674ZM2006.76 183.441C2030.04 183.441 2050.07 176.297 2064.3 163C2078.54 149.695 2086.87 130.313 2086.87 106.025H2084.87C2084.87 129.834 2076.71 148.66 2062.94 161.539C2049.15 174.426 2029.63 181.441 2006.76 181.441V183.441ZM2086.87 106.025V81.8555H2084.87V106.025H2086.87ZM2085.87 80.8555H2008.23V82.8555H2085.87V80.8555ZM2007.23 81.8555V115.059H2009.23V81.8555H2007.23ZM2008.23 116.059H2040.94V114.059H2008.23V116.059ZM2039.94 115.044C2039.83 122.975 2037 129.363 2031.61 133.803C2026.2 138.263 2018.09 140.854 2007.25 140.914L2007.26 142.914C2018.39 142.852 2027 140.194 2032.88 135.346C2038.79 130.478 2041.82 123.499 2041.94 115.074L2039.94 115.044ZM2007.26 140.914C1994.83 140.854 1985.44 136.272 1979.12 127.899C1972.77 119.485 1969.43 107.126 1969.43 91.377H1967.43C1967.43 107.367 1970.81 120.215 1977.52 129.104C1984.26 138.035 1994.28 142.852 2007.25 142.914L2007.26 140.914ZM1969.43 91.377C1969.43 75.7042 1973.01 63.4378 1979.51 55.1119C1985.98 46.8193 1995.44 42.3281 2007.5 42.3281V40.3281C1994.89 40.3281 1984.82 45.0532 1977.93 53.8811C1971.06 62.6755 1967.43 75.4335 1967.43 91.377H1969.43ZM2007.5 42.3281C2015.09 42.3281 2021.42 44.1225 2026.2 47.4021C2030.98 50.6744 2034.29 55.4663 2035.82 61.5902L2037.76 61.1051C2036.12 54.5337 2032.54 49.3158 2027.33 45.7522C2022.14 42.1959 2015.4 40.3281 2007.5 40.3281V42.3281ZM2261.16 3.24219H2262.16V2.24219H2261.16V3.24219ZM2214.77 3.24219V2.24219H2213.77V3.24219H2214.77ZM2214.77 98.2129V99.2129H2215.77V98.2129H2214.77ZM2213.31 98.2129L2212.48 98.7759L2212.78 99.2129H2213.31V98.2129ZM2148.61 3.24219L2149.44 2.67918L2149.14 2.24219H2148.61V3.24219ZM2109.06 3.24219V2.24219H2108.06V3.24219H2109.06ZM2109.06 180H2108.06V181H2109.06V180ZM2155.45 180V181H2156.45V180H2155.45ZM2155.45 84.541V83.541H2154.45V84.541H2155.45ZM2156.67 84.541L2157.49 83.9742L2157.19 83.541H2156.67V84.541ZM2222.34 180L2221.52 180.567L2221.81 181H2222.34V180ZM2261.16 180V181H2262.16V180H2261.16ZM2261.16 2.24219H2214.77V4.24219H2261.16V2.24219ZM2213.77 3.24219V98.2129H2215.77V3.24219H2213.77ZM2214.77 97.2129H2213.31V99.2129H2214.77V97.2129ZM2214.13 97.6499L2149.44 2.67918L2147.78 3.80519L2212.48 98.7759L2214.13 97.6499ZM2148.61 2.24219H2109.06V4.24219H2148.61V2.24219ZM2108.06 3.24219V180H2110.06V3.24219H2108.06ZM2109.06 181H2155.45V179H2109.06V181ZM2156.45 180V84.541H2154.45V180H2156.45ZM2155.45 85.541H2156.67V83.541H2155.45V85.541ZM2155.84 85.1078L2221.52 180.567L2223.16 179.433L2157.49 83.9742L2155.84 85.1078ZM2222.34 181H2261.16V179H2222.34V181ZM2262.16 180V3.24219H2260.16V180H2262.16Z" fill="white"/>
</svg>
